{
  "accessors": [
    {
      "bufferView": 1,
      "componentType": 5126,
      "count": 65532,
      "max": [
        188.58724975585938,
        118.01943969726562,
        168.8629150390625
      ],
      "min": [
        -184.28155517578125,
        -94.767471313476562,
        1.1613994836807251
      ],
      "type": "VEC3"
    },
    {
      "bufferView": 1,
      "byteOffset": 786384,
      "componentType": 5126,
      "count": 65532,
      "max": [
        0.99999994039535522,
        0.999991774559021,
        0.99995601177215576
      ],
      "min": [
        -1,
        -0.99999171495437622,
        -1
      ],
      "type": "VEC3"
    },
    {
      "bufferView": 0,
      "componentType": 5125,
      "count": 324084,
      "max": [
        65531
      ],
      "min": [
        0
      ],
      "type": "SCALAR"
    },
    {
      "bufferView": 1,
      "byteOffset": 1572768,
      "componentType": 5126,
      "count": 46784,
      "max": [
        188.29106140136719,
        40.101692199707031,
        167.01455688476562
      ],
      "min": [
        -69.365455627441406,
        -105.03752136230469,
        43.451084136962891
      ],
      "type": "VEC3"
    },
    {
      "bufferView": 1,
      "byteOffset": 2134176,
      "componentType": 5126,
      "count": 46784,
      "max": [
        0.99996840953826904,
        0.99996751546859741,
        0.99994105100631714
      ],
      "min": [
        -0.99992692470550537,
        -0.99984633922576904,
        -0.99998140335083008
      ],
      "type": "VEC3"
    },
    {
      "bufferView": 0,
      "byteOffset": 1296336,
      "componentType": 5125,
      "count": 238725,
      "max": [
        46783
      ],
      "min": [
        0
      ],
      "type": "SCALAR"
    }
  ],
  "asset": {
    "extras": {
      "author": "fastboi (https://sketchfab.com/fastboi)",
      "license": "CC-BY-4.0 (http://creativecommons.org/licenses/by/4.0/)",
      "source": "https://sketchfab.com/3d-models/tiamat-5865d67e02024a30b65b6054090fd021",
      "title": "Tiamat"
    },
    "generator": "Sketchfab-4.47.0",
    "version": "2.0"
  },
  "bufferViews": [
    {
      "buffer": 0,
      "byteLength": 2251236,
      "byteOffset": 0,
      "name": "floatBufferViews",
      "target": 34963
    },
    {
      "buffer": 0,
      "byteLength": 2695584,
      "byteOffset": 2251236,
      "byteStride": 12,
      "name": "floatBufferViews",
      "target": 34962
    }
  ],
  "buffers": [
    {
      "byteLength": 4946820,
      "uri": "scene.bin"
    }
  ],
  "materials": [
    {
      "doubleSided": true,
      "name": "Scene_-_Root",
      "pbrMetallicRoughness": {
        "baseColorFactor": [
          1,
          1,
          1,
          1
        ],
        "metallicFactor": 0,
        "roughnessFactor": 0.59999999999999998
      }
    }
  ],
  "meshes": [
    {
      "primitives": [
        {
          "attributes": {
            "NORMAL": 1,
            "POSITION": 0
          },
          "indices": 2,
          "material": 0,
          "mode": 4
        }
      ]
    },
    {
      "primitives": [
        {
          "attributes": {
            "NORMAL": 4,
            "POSITION": 3
          },
          "indices": 5,
          "material": 0,
          "mode": 4
        }
      ]
    }
  ],
  "nodes": [
    {
      "children": [
        1
      ],
      "name": "RootNode (gltf orientation matrix)",
      "rotation": [
        -0.70710678118654746,
        -0,
        -0,
        0.70710678118654757
      ]
    },
    {
      "children": [
        2
      ],
      "name": "RootNode (model correction matrix)"
    },
    {
      "children": [
        3,
        4
      ],
      "name": "MD.STL.cleaner.materialmerger.gles"
    },
    {
      "mesh": 0,
      "name": ""
    },
    {
      "mesh": 1,
      "name": ""
    }
  ],
  "scene": 0,
  "scenes": [
    {
      "name": "OSG_Scene",
      "nodes": [
        0
      ]
    }
  ]
}

