{
  "accessors": [
    {
      "bufferView": 2,
      "componentType": 5126,
      "count": 158,
      "max": [
        -173.12080383300781,
        4.7989001274108887,
        173.45799255371094
      ],
      "min": [
        -175.63679504394531,
        -3.7978000640869141,
        169.91799926757812
      ],
      "type": "VEC3"
    },
    {
      "bufferView": 2,
      "byteOffset": 1896,
      "componentType": 5126,
      "count": 158,
      "max": [
        0.99912148714065552,
        0.99882590770721436,
        0.99958401918411255
      ],
      "min": [
        -0.27909830212593079,
        -0.99811923503875732,
        -0.99960845708847046
      ],
      "type": "VEC3"
    },
    {
      "bufferView": 3,
      "componentType": 5126,
      "count": 158,
      "max": [
        0.98852443695068359,
        0.27551668882369995,
        0.57025021314620972,
        1
      ],
      "min": [
        -0.99077069759368896,
        -0.97516852617263794,
        -0.58849483728408813,
        1
      ],
      "type": "VEC4"
    },
    {
      "bufferView": 1,
      "componentType": 5126,
      "count": 158,
      "max": [
        0.81199997663497925,
        0.74949997663497925
      ],
      "min": [
        0.72219997644424438,
        0.66060000658035278
      ],
      "type": "VEC2"
    },
    {
      "bufferView": 0,
      "componentType": 5125,
      "count": 864,
      "max": [
        157
      ],
      "min": [
        0
      ],
      "type": "SCALAR"
    },
    {
      "bufferView": 2,
      "byteOffset": 3792,
      "componentType": 5126,
      "count": 2754,
      "max": [
        -199.69630432128906,
        25.675100326538086,
        183.09869384765625
      ],
      "min": [
        -206.24440002441406,
        -25.495599746704102,
        92.322601318359375
      ],
      "type": "VEC3"
    },
    {
      "bufferView": 2,
      "byteOffset": 36840,
      "componentType": 5126,
      "count": 2754,
      "max": [
        0.99937796592712402,
        0.99904918670654297,
        0.99646639823913574
      ],
      "min": [
        -0.99996650218963623,
        -0.99975639581680298,
        -0.99536961317062378
      ],
      "type": "VEC3"
    },
    {
      "bufferView": 3,
      "byteOffset": 2528,
      "componentType": 5126,
      "count": 2754,
      "max": [
        0.98494225740432739,
        0.98755204677581787,
        0.99985194206237793,
        1
      ],
      "min": [
        -0.93363052606582642,
        -0.99925285577774048,
        -0.99629217386245728,
        1
      ],
      "type": "VEC4"
    },
    {
      "bufferView": 1,
      "byteOffset": 1264,
      "componentType": 5126,
      "count": 2754,
      "max": [
        0.99610000848770142,
        0.99239999055862427
      ],
      "min": [
        0.0030000000260770321,
        0.002899999963119626
      ],
      "type": "VEC2"
    },
    {
      "bufferView": 0,
      "byteOffset": 3456,
      "componentType": 5125,
      "count": 12984,
      "max": [
        2753
      ],
      "min": [
        0
      ],
      "type": "SCALAR"
    },
    {
      "bufferView": 2,
      "byteOffset": 69888,
      "componentType": 5126,
      "count": 7612,
      "max": [
        -168.19380187988281,
        52.926601409912109,
        163.427001953125
      ],
      "min": [
        -205.21839904785156,
        -53.422100067138672,
        18.541799545288086
      ],
      "type": "VEC3"
    },
    {
      "bufferView": 2,
      "byteOffset": 161232,
      "componentType": 5126,
      "count": 7612,
      "max": [
        0.99988293647766113,
        0.99990582466125488,
        0.99993360042572021
      ],
      "min": [
        -0.9999004602432251,
        -0.99997425079345703,
        -0.99930691719055176
      ],
      "type": "VEC3"
    },
    {
      "bufferView": 3,
      "byteOffset": 46592,
      "componentType": 5126,
      "count": 7612,
      "max": [
        0.99965417385101318,
        0.99988973140716553,
        0.99953711032867432,
        1
      ],
      "min": [
        -0.99996829032897949,
        -0.99997037649154663,
        -0.99999994039535522,
        -1
      ],
      "type": "VEC4"
    },
    {
      "bufferView": 1,
      "byteOffset": 23296,
      "componentType": 5126,
      "count": 7612,
      "max": [
        1.9951000213623047,
        0.99580001831054688
      ],
      "min": [
        -0,
        0.001500000013038516
      ],
      "type": "VEC2"
    },
    {
      "bufferView": 0,
      "byteOffset": 55392,
      "componentType": 5125,
      "count": 32382,
      "max": [
        7611
      ],
      "min": [
        0
      ],
      "type": "SCALAR"
    },
    {
      "bufferView": 2,
      "byteOffset": 252576,
      "componentType": 5126,
      "count": 7807,
      "max": [
        -163.73019409179688,
        62.436698913574219,
        182.48399353027344
      ],
      "min": [
        -202.05549621582031,
        -62.3843994140625,
        0.99070000648498535
      ],
      "type": "VEC3"
    },
    {
      "bufferView": 2,
      "byteOffset": 346260,
      "componentType": 5126,
      "count": 7807,
      "max": [
        0.99996829032897949,
        0.9999765157699585,
        0.99971085786819458
      ],
      "min": [
        -0.99990510940551758,
        -0.99989914894104004,
        -0.99997186660766602
      ],
      "type": "VEC3"
    },
    {
      "bufferView": 3,
      "byteOffset": 168384,
      "componentType": 5126,
      "count": 7807,
      "max": [
        0.99999994039535522,
        0.99997991323471069,
        0.99991494417190552,
        1
      ],
      "min": [
        -0.99991923570632935,
        -0.99999231100082397,
        -0.99684667587280273,
        -1
      ],
      "type": "VEC4"
    },
    {
      "bufferView": 1,
      "byteOffset": 84192,
      "componentType": 5126,
      "count": 7807,
      "max": [
        0.9814000129699707,
        0.97939997911453247
      ],
      "min": [
        0.027300000190734863,
        0.01810000091791153
      ],
      "type": "VEC2"
    },
    {
      "bufferView": 0,
      "byteOffset": 184920,
      "componentType": 5125,
      "count": 41430,
      "max": [
        7806
      ],
      "min": [
        0
      ],
      "type": "SCALAR"
    }
  ],
  "asset": {
    "extras": {
      "author": "all3dfree (https://sketchfab.com/Jacoblee84)",
      "license": "CC-BY-4.0 (http://creativecommons.org/licenses/by/4.0/)",
      "source": "https://sketchfab.com/3d-models/marvel-character-deadpool-9f3249b2c3044ac0827c1f3a4d80aabe",
      "title": "Marvel character - Deadpool"
    },
    "generator": "Sketchfab-4.47.0",
    "version": "2.0"
  },
  "bufferViews": [
    {
      "buffer": 0,
      "byteLength": 350640,
      "byteOffset": 0,
      "name": "floatBufferViews",
      "target": 34963
    },
    {
      "buffer": 0,
      "byteLength": 146648,
      "byteOffset": 350640,
      "byteStride": 8,
      "name": "floatBufferViews",
      "target": 34962
    },
    {
      "buffer": 0,
      "byteLength": 439944,
      "byteOffset": 497288,
      "byteStride": 12,
      "name": "floatBufferViews",
      "target": 34962
    },
    {
      "buffer": 0,
      "byteLength": 293296,
      "byteOffset": 937232,
      "byteStride": 16,
      "name": "floatBufferViews",
      "target": 34962
    }
  ],
  "buffers": [
    {
      "byteLength": 1230528,
      "uri": "scene.bin"
    }
  ],
  "images": [
    {
      "uri": "textures/Material2_emissive.jpeg"
    },
    {
      "uri": "textures/Material2_baseColor.jpeg"
    },
    {
      "uri": "textures/Material1_emissive.jpeg"
    },
    {
      "uri": "textures/Material1_baseColor.jpeg"
    },
    {
      "uri": "textures/Material3_emissive.jpeg"
    },
    {
      "uri": "textures/Material3_baseColor.jpeg"
    }
  ],
  "materials": [
    {
      "doubleSided": true,
      "emissiveFactor": [
        0,
        0,
        0
      ],
      "name": "Default",
      "pbrMetallicRoughness": {
        "baseColorFactor": [
          0.58799999999999997,
          0.58799999999999997,
          0.58799999999999997,
          1
        ],
        "metallicFactor": 0,
        "roughnessFactor": 1
      }
    },
    {
      "doubleSided": true,
      "emissiveFactor": [
        0,
        0,
        0
      ],
      "emissiveTexture": {
        "index": 2,
        "texCoord": 0
      },
      "name": "Material1",
      "pbrMetallicRoughness": {
        "baseColorFactor": [
          1,
          1,
          1,
          1
        ],
        "baseColorTexture": {
          "index": 3,
          "texCoord": 0
        },
        "metallicFactor": 0,
        "roughnessFactor": 1
      }
    },
    {
      "doubleSided": true,
      "emissiveFactor": [
        0,
        0,
        0
      ],
      "emissiveTexture": {
        "index": 0,
        "texCoord": 0
      },
      "name": "Material2",
      "pbrMetallicRoughness": {
        "baseColorFactor": [
          1,
          1,
          1,
          1
        ],
        "baseColorTexture": {
          "index": 1,
          "texCoord": 0
        },
        "metallicFactor": 0,
        "roughnessFactor": 1
      }
    },
    {
      "doubleSided": true,
      "emissiveFactor": [
        0,
        0,
        0
      ],
      "emissiveTexture": {
        "index": 4,
        "texCoord": 0
      },
      "name": "Material3",
      "pbrMetallicRoughness": {
        "baseColorFactor": [
          1,
          1,
          1,
          1
        ],
        "baseColorTexture": {
          "index": 5,
          "texCoord": 0
        },
        "metallicFactor": 0,
        "roughnessFactor": 1
      }
    }
  ],
  "meshes": [
    {
      "primitives": [
        {
          "attributes": {
            "NORMAL": 1,
            "POSITION": 0,
            "TANGENT": 2,
            "TEXCOORD_0": 3
          },
          "indices": 4,
          "material": 0,
          "mode": 4
        }
      ]
    },
    {
      "primitives": [
        {
          "attributes": {
            "NORMAL": 6,
            "POSITION": 5,
            "TANGENT": 7,
            "TEXCOORD_0": 8
          },
          "indices": 9,
          "material": 1,
          "mode": 4
        }
      ]
    },
    {
      "primitives": [
        {
          "attributes": {
            "NORMAL": 11,
            "POSITION": 10,
            "TANGENT": 12,
            "TEXCOORD_0": 13
          },
          "indices": 14,
          "material": 3,
          "mode": 4
        }
      ]
    },
    {
      "primitives": [
        {
          "attributes": {
            "NORMAL": 16,
            "POSITION": 15,
            "TANGENT": 17,
            "TEXCOORD_0": 18
          },
          "indices": 19,
          "material": 2,
          "mode": 4
        }
      ]
    }
  ],
  "nodes": [
    {
      "children": [
        1
      ],
      "name": "RootNode (gltf orientation matrix)",
      "rotation": [
        -0.70710678118654746,
        -0,
        -0,
        0.70710678118654757
      ]
    },
    {
      "children": [
        2
      ],
      "name": "RootNode (model correction matrix)"
    },
    {
      "children": [
        3,
        4,
        5,
        6
      ],
      "name": "3.obj.cleaner.materialmerger.gles"
    },
    {
      "mesh": 0,
      "name": ""
    },
    {
      "mesh": 1,
      "name": ""
    },
    {
      "mesh": 2,
      "name": ""
    },
    {
      "mesh": 3,
      "name": ""
    }
  ],
  "samplers": [
    {
      "magFilter": 9729,
      "minFilter": 9987,
      "wrapS": 10497,
      "wrapT": 10497
    }
  ],
  "scene": 0,
  "scenes": [
    {
      "name": "OSG_Scene",
      "nodes": [
        0
      ]
    }
  ],
  "textures": [
    {
      "sampler": 0,
      "source": 0
    },
    {
      "sampler": 0,
      "source": 1
    },
    {
      "sampler": 0,
      "source": 2
    },
    {
      "sampler": 0,
      "source": 3
    },
    {
      "sampler": 0,
      "source": 4
    },
    {
      "sampler": 0,
      "source": 5
    }
  ]
}

